<svg width="101" height="58" viewBox="0 0 101 58" fill="none" xmlns="http://www.w3.org/2000/svg">
<path d="M23.947 57.8C16.587 57.7467 10.987 55.8 7.14699 51.96C3.30699 48.12 1.20033 43.0533 0.826992 36.76C0.720326 33.88 0.666992 31.2933 0.666992 29C0.666992 26.6533 0.720326 23.9867 0.826992 21C1.04033 17 2.02699 13.4533 3.78699 10.36C5.60033 7.21333 8.18699 4.73333 11.547 2.92C14.9603 1.10666 19.0937 0.199997 23.947 0.199997C28.8003 0.199997 32.9337 1.10666 36.347 2.92C39.7603 4.73333 42.347 7.21333 44.107 10.36C45.9203 13.4533 46.9337 17 47.147 21C47.2537 22.4933 47.307 25.16 47.307 29C47.307 32.7333 47.2537 35.32 47.147 36.76C46.7737 43.0533 44.667 48.12 40.827 51.96C36.987 55.8 31.3603 57.7467 23.947 57.8ZM23.947 45.72C26.4537 45.72 28.3203 44.92 29.547 43.32C30.7737 41.6667 31.4403 39.3467 31.547 36.36C31.6537 34.8133 31.707 32.3067 31.707 28.84C31.707 25.3733 31.6537 22.92 31.547 21.48C31.4403 18.6 30.7737 16.3333 29.547 14.68C28.3203 12.9733 26.4537 12.12 23.947 12.12C19.147 12.12 16.6137 15.24 16.347 21.48C16.2937 22.92 16.267 25.3733 16.267 28.84C16.267 32.3067 16.2937 34.8133 16.347 36.36C16.6137 42.6 19.147 45.72 23.947 45.72ZM77.1945 57.88C72.3412 57.88 68.1545 57.1067 64.6345 55.56C61.1678 54.0133 58.5278 51.96 56.7145 49.4C54.9545 46.84 54.0212 44.04 53.9145 41C53.9145 40.52 54.0745 40.12 54.3945 39.8C54.7145 39.48 55.1145 39.32 55.5945 39.32H66.8745C68.1545 39.32 69.0345 39.8267 69.5145 40.84C70.2612 42.6 71.2478 43.88 72.4745 44.68C73.7545 45.48 75.3278 45.88 77.1945 45.88C79.4878 45.88 81.3812 45.1867 82.8745 43.8C84.4212 42.4133 85.1945 40.4667 85.1945 37.96C85.1945 35.7733 84.4478 33.96 82.9545 32.52C81.4612 31.08 79.5412 30.36 77.1945 30.36C75.8612 30.36 74.7945 30.5467 73.9945 30.92C73.1945 31.24 72.4212 31.6933 71.6745 32.28C70.8745 32.92 70.1812 33.24 69.5945 33.24H58.4745C57.9945 33.24 57.5678 33.08 57.1945 32.76C56.8745 32.3867 56.7145 31.96 56.7145 31.48L59.6745 3.4C59.7278 2.65333 59.9945 2.06667 60.4745 1.64C61.0078 1.21333 61.6212 0.999996 62.3145 0.999996H94.8745C95.4612 0.999996 95.9412 1.18666 96.3145 1.56C96.6878 1.93333 96.8745 2.41333 96.8745 3V11C96.8745 11.5333 96.6878 12.0133 96.3145 12.44C95.9412 12.8133 95.4612 13 94.8745 13H71.5945L70.6345 22.84C71.9145 21.9333 73.3545 21.2667 74.9545 20.84C76.5545 20.36 78.6345 20.12 81.1945 20.12C84.6078 20.12 87.8078 20.8933 90.7945 22.44C93.7812 23.9333 96.1545 26.0667 97.9145 28.84C99.7278 31.6133 100.634 34.7867 100.634 38.36C100.634 42.0933 99.7012 45.4533 97.8345 48.44C95.9678 51.3733 93.2478 53.6933 89.6745 55.4C86.1545 57.0533 81.9945 57.88 77.1945 57.88Z" fill="#FBD5D5"/>
</svg>
