<svg width="104" height="58" viewBox="0 0 104 58" fill="none" xmlns="http://www.w3.org/2000/svg">
<path d="M23.78 57.8C16.42 57.7467 10.82 55.8 6.98 51.96C3.14 48.12 1.03333 43.0533 0.66 36.76C0.553333 33.88 0.5 31.2933 0.5 29C0.5 26.6533 0.553333 23.9867 0.66 21C0.873333 17 1.86 13.4533 3.62 10.36C5.43333 7.21333 8.02 4.73333 11.38 2.92C14.7933 1.10666 18.9267 0.199997 23.78 0.199997C28.6333 0.199997 32.7667 1.10666 36.18 2.92C39.5933 4.73333 42.18 7.21333 43.94 10.36C45.7533 13.4533 46.7667 17 46.98 21C47.0867 22.4933 47.14 25.16 47.14 29C47.14 32.7333 47.0867 35.32 46.98 36.76C46.6067 43.0533 44.5 48.12 40.66 51.96C36.82 55.8 31.1933 57.7467 23.78 57.8ZM23.78 45.72C26.2867 45.72 28.1533 44.92 29.38 43.32C30.6067 41.6667 31.2733 39.3467 31.38 36.36C31.4867 34.8133 31.54 32.3067 31.54 28.84C31.54 25.3733 31.4867 22.92 31.38 21.48C31.2733 18.6 30.6067 16.3333 29.38 14.68C28.1533 12.9733 26.2867 12.12 23.78 12.12C18.98 12.12 16.4467 15.24 16.18 21.48C16.1267 22.92 16.1 25.3733 16.1 28.84C16.1 32.3067 16.1267 34.8133 16.18 36.36C16.4467 42.6 18.98 45.72 23.78 45.72ZM82.2275 57C81.6942 57 81.2142 56.8133 80.7875 56.44C80.4142 56.0133 80.2275 55.5333 80.2275 55V46.2H55.4275C54.8942 46.2 54.4142 46.0133 53.9875 45.64C53.6142 45.2133 53.4275 44.7333 53.4275 44.2V36.12C53.4275 35.32 53.7208 34.52 54.3075 33.72L77.5075 2.36C78.2542 1.45333 79.2408 0.999996 80.4675 0.999996H92.6275C93.2142 0.999996 93.6942 1.18666 94.0675 1.56C94.4942 1.93333 94.7075 2.41333 94.7075 3V33.8H101.748C102.388 33.8 102.894 34.0133 103.268 34.44C103.641 34.8133 103.828 35.2667 103.828 35.8V44.2C103.828 44.7333 103.641 45.2133 103.268 45.64C102.894 46.0133 102.414 46.2 101.828 46.2H94.7075V55C94.7075 55.5867 94.4942 56.0667 94.0675 56.44C93.6942 56.8133 93.2142 57 92.6275 57H82.2275ZM67.6675 34.36H80.5475V16.36L67.6675 34.36Z" fill="#FBD5D5"/>
</svg>
