<svg width="17" height="17" viewBox="0 0 17 17" fill="none" xmlns="http://www.w3.org/2000/svg">
                    <path fill-rule="evenodd" clip-rule="evenodd" d="M8.5 5.50031C9.32843 5.50031 10 6.17188 10 7.00031C10 7.82874 9.32843 8.50031 8.5 8.50031C7.67157 8.50031 7 7.82874 7 7.00031C7 6.17188 7.67157 5.50031 8.5 5.50031ZM8.5 4.50031C7.11929 4.50031 6 5.6196 6 7.00031C6 8.38102 7.11929 9.50031 8.5 9.50031C9.88071 9.50031 11 8.38102 11 7.00031C11 5.61962 9.88069 4.50036 8.5 4.50036V4.50031ZM8.5 2.50041C10.9445 2.46421 12.9573 4.41302 13 6.85741C13.0002 7.80086 12.686 8.71749 12.107 9.46241L12.0903 9.48421L12.0748 9.50691L8.5 14.7296L4.925 9.50681L4.90945 9.48411L4.8927 9.46231C4.31386 8.71739 3.99975 7.80083 4 6.85746C4.04273 4.41307 6.05551 2.46426 8.5 2.50046V2.50041ZM8.5 1.50044C5.50257 1.46258 3.0411 3.86006 3 6.85744C3.0012 8.021 3.38803 9.15134 4.1 10.0716L8.5 16.5L12.9 10.0716C13.612 9.15134 13.9988 8.021 14 6.85744C13.9589 3.86006 11.4974 1.46258 8.5 1.50044Z" fill="white"/>
                    <mask id="mask0_17806_8663" style="mask-type:luminance" maskUnits="userSpaceOnUse" x="3" y="1" width="11" height="16">
                    <path fill-rule="evenodd" clip-rule="evenodd" d="M8.5 5.50031C9.32843 5.50031 10 6.17188 10 7.00031C10 7.82874 9.32843 8.50031 8.5 8.50031C7.67157 8.50031 7 7.82874 7 7.00031C7 6.17188 7.67157 5.50031 8.5 5.50031ZM8.5 4.50031C7.11929 4.50031 6 5.6196 6 7.00031C6 8.38102 7.11929 9.50031 8.5 9.50031C9.88071 9.50031 11 8.38102 11 7.00031C11 5.61962 9.88069 4.50036 8.5 4.50036V4.50031ZM8.5 2.50041C10.9445 2.46421 12.9573 4.41302 13 6.85741C13.0002 7.80086 12.686 8.71749 12.107 9.46241L12.0903 9.48421L12.0748 9.50691L8.5 14.7296L4.925 9.50681L4.90945 9.48411L4.8927 9.46231C4.31386 8.71739 3.99975 7.80083 4 6.85746C4.04273 4.41307 6.05551 2.46426 8.5 2.50046V2.50041ZM8.5 1.50044C5.50257 1.46258 3.0411 3.86006 3 6.85744C3.0012 8.021 3.38803 9.15134 4.1 10.0716L8.5 16.5L12.9 10.0716C13.612 9.15134 13.9988 8.021 14 6.85744C13.9589 3.86006 11.4974 1.46258 8.5 1.50044Z" fill="white"/>
                    </mask>
                    <g mask="url(#mask0_17806_8663)">
                    </g>
                    </svg>  