<svg width="86" height="58" viewBox="0 0 86 58" fill="none" xmlns="http://www.w3.org/2000/svg">
<path d="M23.28 57.8C15.92 57.7467 10.32 55.8 6.48 51.96C2.64 48.12 0.533334 43.0533 0.16 36.76C0.0533334 33.88 5.96046e-08 31.2933 5.96046e-08 29C5.96046e-08 26.6533 0.0533334 23.9867 0.16 21C0.373333 17 1.36 13.4533 3.12 10.36C4.93333 7.21333 7.52 4.73333 10.88 2.92C14.2933 1.10666 18.4267 0.199997 23.28 0.199997C28.1333 0.199997 32.2667 1.10666 35.68 2.92C39.0933 4.73333 41.68 7.21333 43.44 10.36C45.2533 13.4533 46.2667 17 46.48 21C46.5867 22.4933 46.64 25.16 46.64 29C46.64 32.7333 46.5867 35.32 46.48 36.76C46.1067 43.0533 44 48.12 40.16 51.96C36.32 55.8 30.6933 57.7467 23.28 57.8ZM23.28 45.72C25.7867 45.72 27.6533 44.92 28.88 43.32C30.1067 41.6667 30.7733 39.3467 30.88 36.36C30.9867 34.8133 31.04 32.3067 31.04 28.84C31.04 25.3733 30.9867 22.92 30.88 21.48C30.7733 18.6 30.1067 16.3333 28.88 14.68C27.6533 12.9733 25.7867 12.12 23.28 12.12C18.48 12.12 15.9467 15.24 15.68 21.48C15.6267 22.92 15.6 25.3733 15.6 28.84C15.6 32.3067 15.6267 34.8133 15.68 36.36C15.9467 42.6 18.48 45.72 23.28 45.72ZM72.8475 57C72.3142 57 71.8342 56.8133 71.4075 56.44C71.0342 56.0133 70.8475 55.5333 70.8475 55V17.56L60.1275 25.8C59.7008 26.0667 59.3008 26.2 58.9275 26.2C58.2875 26.2 57.7275 25.88 57.2475 25.24L52.2875 18.84C52.0742 18.4667 51.9675 18.0667 51.9675 17.64C51.9675 16.8933 52.2608 16.3067 52.8475 15.88L71.4075 1.56C71.9408 1.18666 72.5542 0.999996 73.2475 0.999996H83.8075C84.3942 0.999996 84.8742 1.18666 85.2475 1.56C85.6742 1.93333 85.8875 2.41333 85.8875 3V55C85.8875 55.5867 85.6742 56.0667 85.2475 56.44C84.8742 56.8133 84.3942 57 83.8075 57H72.8475Z" fill="#FBD5D5"/>
</svg>
