<svg width="17" height="16" viewBox="0 0 17 16" fill="none" xmlns="http://www.w3.org/2000/svg">
<g clip-path="url(#clip0_17806_8695)">
<path d="M4.86 3.33333C4.9 3.92667 5 4.50667 5.16 5.06L4.36 5.86C4.08667 5.06 3.91333 4.21333 3.85333 3.33333H4.86ZM11.4333 11.3467C12 11.5067 12.58 11.6067 13.1667 11.6467V12.64C12.2867 12.58 11.44 12.4067 10.6333 12.14L11.4333 11.3467ZM5.5 2H3.16667C2.8 2 2.5 2.3 2.5 2.66667C2.5 8.92667 7.57333 14 13.8333 14C14.2 14 14.5 13.7 14.5 13.3333V11.0067C14.5 10.64 14.2 10.34 13.8333 10.34C13.0067 10.34 12.2 10.2067 11.4533 9.96C11.3867 9.93333 11.3133 9.92667 11.2467 9.92667C11.0733 9.92667 10.9067 9.99333 10.7733 10.12L9.30667 11.5867C7.42 10.62 5.87333 9.08 4.91333 7.19333L6.38 5.72667C6.56667 5.54 6.62 5.28 6.54667 5.04667C6.3 4.3 6.16667 3.5 6.16667 2.66667C6.16667 2.3 5.86667 2 5.5 2Z" fill="white" fill-opacity="0.8"/>
</g>
<defs>
<clipPath id="clip0_17806_8695">
<rect width="16" height="16" fill="white" transform="translate(0.5)"/>
</clipPath>
</defs>
</svg>
