<svg width="102" height="58" viewBox="0 0 102 58" fill="none" xmlns="http://www.w3.org/2000/svg">
<path d="M24.113 57.8C16.753 57.7467 11.153 55.8 7.31301 51.96C3.47301 48.12 1.36634 43.0533 0.993008 36.76C0.886341 33.88 0.833008 31.2933 0.833008 29C0.833008 26.6533 0.886341 23.9867 0.993008 21C1.20634 17 2.19301 13.4533 3.95301 10.36C5.76634 7.21333 8.35301 4.73333 11.713 2.92C15.1263 1.10666 19.2597 0.199997 24.113 0.199997C28.9663 0.199997 33.0997 1.10666 36.513 2.92C39.9263 4.73333 42.513 7.21333 44.273 10.36C46.0863 13.4533 47.0997 17 47.313 21C47.4197 22.4933 47.473 25.16 47.473 29C47.473 32.7333 47.4197 35.32 47.313 36.76C46.9397 43.0533 44.833 48.12 40.993 51.96C37.153 55.8 31.5263 57.7467 24.113 57.8ZM24.113 45.72C26.6197 45.72 28.4863 44.92 29.713 43.32C30.9397 41.6667 31.6063 39.3467 31.713 36.36C31.8197 34.8133 31.873 32.3067 31.873 28.84C31.873 25.3733 31.8197 22.92 31.713 21.48C31.6063 18.6 30.9397 16.3333 29.713 14.68C28.4863 12.9733 26.6197 12.12 24.113 12.12C19.313 12.12 16.7797 15.24 16.513 21.48C16.4597 22.92 16.433 25.3733 16.433 28.84C16.433 32.3067 16.4597 34.8133 16.513 36.36C16.7797 42.6 19.313 45.72 24.113 45.72ZM78.1605 57.8C73.4138 57.8 69.2272 56.9733 65.6005 55.32C61.9738 53.6133 59.1472 51.24 57.1205 48.2C55.0938 45.16 54.0805 41.6667 54.0805 37.72C54.0805 33.1333 56.3472 27.6667 60.8805 21.32L74.8805 2.6C75.6272 1.53333 76.5872 0.999996 77.7605 0.999996H88.9605C89.4405 0.999996 89.8405 1.18666 90.1605 1.56C90.5338 1.88 90.7205 2.28 90.7205 2.76C90.7205 3.02666 90.5872 3.37333 90.3205 3.8L79.6005 18.36C80.2405 18.2 80.9872 18.12 81.8405 18.12C85.0938 18.28 88.2405 19.1867 91.2805 20.84C94.3738 22.4933 96.8805 24.76 98.8005 27.64C100.774 30.4667 101.761 33.72 101.761 37.4C101.761 41.1333 100.774 44.5733 98.8005 47.72C96.8272 50.8133 94.0538 53.2667 90.4805 55.08C86.9072 56.8933 82.8005 57.8 78.1605 57.8ZM78.0005 45.8C80.3472 45.8 82.3472 45.08 84.0005 43.64C85.6538 42.1467 86.4805 40.1467 86.4805 37.64C86.4805 35.08 85.6538 33.08 84.0005 31.64C82.4005 30.2 80.4005 29.48 78.0005 29.48C75.6005 29.48 73.5738 30.2 71.9205 31.64C70.3205 33.08 69.5205 35.08 69.5205 37.64C69.5205 40.2 70.3205 42.2 71.9205 43.64C73.5738 45.08 75.6005 45.8 78.0005 45.8Z" fill="#FBD5D5"/>
</svg>
