<svg width="102" height="58" viewBox="0 0 102 58" fill="none" xmlns="http://www.w3.org/2000/svg">
<path d="M23.613 57.8C16.253 57.7467 10.653 55.8 6.81301 51.96C2.97301 48.12 0.866341 43.0533 0.493008 36.76C0.386341 33.88 0.333008 31.2933 0.333008 29C0.333008 26.6533 0.386341 23.9867 0.493008 21C0.706341 17 1.69301 13.4533 3.45301 10.36C5.26634 7.21333 7.85301 4.73333 11.213 2.92C14.6263 1.10666 18.7597 0.199997 23.613 0.199997C28.4663 0.199997 32.5997 1.10666 36.013 2.92C39.4263 4.73333 42.013 7.21333 43.773 10.36C45.5863 13.4533 46.5997 17 46.813 21C46.9197 22.4933 46.973 25.16 46.973 29C46.973 32.7333 46.9197 35.32 46.813 36.76C46.4397 43.0533 44.333 48.12 40.493 51.96C36.653 55.8 31.0263 57.7467 23.613 57.8ZM23.613 45.72C26.1197 45.72 27.9863 44.92 29.213 43.32C30.4397 41.6667 31.1063 39.3467 31.213 36.36C31.3197 34.8133 31.373 32.3067 31.373 28.84C31.373 25.3733 31.3197 22.92 31.213 21.48C31.1063 18.6 30.4397 16.3333 29.213 14.68C27.9863 12.9733 26.1197 12.12 23.613 12.12C18.813 12.12 16.2797 15.24 16.013 21.48C15.9597 22.92 15.933 25.3733 15.933 28.84C15.933 32.3067 15.9597 34.8133 16.013 36.36C16.2797 42.6 18.813 45.72 23.613 45.72ZM77.1805 57.8C71.9538 57.8 67.5538 57 63.9805 55.4C60.4605 53.7467 57.8472 51.72 56.1405 49.32C54.4872 46.92 53.6072 44.52 53.5005 42.12C53.5005 41.64 53.6605 41.24 53.9805 40.92C54.3538 40.6 54.7805 40.44 55.2605 40.44H66.3005C66.9405 40.44 67.4472 40.5733 67.8205 40.84C68.1938 41.0533 68.5405 41.4267 68.8605 41.96C69.8738 44.5733 72.6738 45.88 77.2605 45.88C79.8738 45.88 81.9005 45.2667 83.3405 44.04C84.7805 42.8133 85.5005 41.16 85.5005 39.08C85.5005 35.08 82.8338 33.08 77.5005 33.08H68.5405C67.9538 33.08 67.4472 32.8933 67.0205 32.52C66.6472 32.0933 66.4605 31.5867 66.4605 31V26.28C66.4605 25.0533 66.9138 24.1467 67.8205 23.56L80.7005 13H58.6205C58.0872 13 57.6072 12.8133 57.1805 12.44C56.8072 12.0133 56.6205 11.5333 56.6205 11V3.08C56.6205 2.49333 56.8072 2.01333 57.1805 1.64C57.5538 1.21333 58.0338 0.999996 58.6205 0.999996H95.9005C96.4872 0.999996 96.9672 1.21333 97.3405 1.64C97.7138 2.01333 97.9005 2.49333 97.9005 3.08V10.2C97.9005 11.32 97.4738 12.2 96.6205 12.84L84.7805 23.64L85.3405 23.8C90.1405 24.4933 93.9538 26.1467 96.7805 28.76C99.6072 31.3733 101.021 35.1333 101.021 40.04C101.021 43.6133 99.9805 46.76 97.9005 49.48C95.8738 52.1467 93.0472 54.2 89.4205 55.64C85.8472 57.08 81.7672 57.8 77.1805 57.8Z" fill="#FBD5D5"/>
</svg>
