<svg width="17" height="17" viewBox="0 0 17 17" fill="none" xmlns="http://www.w3.org/2000/svg">
                    <path fill-rule="evenodd" clip-rule="evenodd" d="M8.5 15.5C4.63401 15.5 1.5 12.366 1.5 8.5C1.5 4.63401 4.63401 1.5 8.5 1.5C12.366 1.5 15.5 4.63401 15.5 8.5C15.4957 12.3642 12.3642 15.4957 8.5 15.5ZM8.5 2.5C5.18629 2.5 2.5 5.18629 2.5 8.5C2.5 11.8137 5.18629 14.5 8.5 14.5C11.8137 14.5 14.5 11.8137 14.5 8.5C14.4964 5.18779 11.8122 2.50361 8.5 2.5ZM10.7935 11.5L8 8.705V4H8.999V8.291L11.5 10.7935L10.7935 11.5Z" fill="white"/>
                    <mask id="mask0_17806_8681" style="mask-type:luminance" maskUnits="userSpaceOnUse" x="1" y="1" width="15" height="15">
                    <path fill-rule="evenodd" clip-rule="evenodd" d="M8.5 15.5C4.63401 15.5 1.5 12.366 1.5 8.5C1.5 4.63401 4.63401 1.5 8.5 1.5C12.366 1.5 15.5 4.63401 15.5 8.5C15.4957 12.3642 12.3642 15.4957 8.5 15.5ZM8.5 2.5C5.18629 2.5 2.5 5.18629 2.5 8.5C2.5 11.8137 5.18629 14.5 8.5 14.5C11.8137 14.5 14.5 11.8137 14.5 8.5C14.4964 5.18779 11.8122 2.50361 8.5 2.5ZM10.7935 11.5L8 8.705V4H8.999V8.291L11.5 10.7935L10.7935 11.5Z" fill="white"/>
                    </mask>
                    <g mask="url(#mask0_17806_8681)">
                    </g>
                    </svg>    