<svg width="100" height="59" viewBox="0 0 100 59" fill="none" xmlns="http://www.w3.org/2000/svg">
<path d="M23.447 58.8C16.087 58.7467 10.487 56.8 6.64699 52.96C2.80699 49.12 0.700326 44.0533 0.326992 37.76C0.220326 34.88 0.166992 32.2933 0.166992 30C0.166992 27.6533 0.220326 24.9867 0.326992 22C0.540326 18 1.52699 14.4533 3.28699 11.36C5.10033 8.21333 7.68699 5.73333 11.047 3.92C14.4603 2.10666 18.5937 1.2 23.447 1.2C28.3003 1.2 32.4337 2.10666 35.847 3.92C39.2603 5.73333 41.847 8.21333 43.607 11.36C45.4203 14.4533 46.4337 18 46.647 22C46.7537 23.4933 46.807 26.16 46.807 30C46.807 33.7333 46.7537 36.32 46.647 37.76C46.2737 44.0533 44.167 49.12 40.327 52.96C36.487 56.8 30.8603 58.7467 23.447 58.8ZM23.447 46.72C25.9537 46.72 27.8203 45.92 29.047 44.32C30.2737 42.6667 30.9403 40.3467 31.047 37.36C31.1537 35.8133 31.207 33.3067 31.207 29.84C31.207 26.3733 31.1537 23.92 31.047 22.48C30.9403 19.6 30.2737 17.3333 29.047 15.68C27.8203 13.9733 25.9537 13.12 23.447 13.12C18.647 13.12 16.1137 16.24 15.847 22.48C15.7937 23.92 15.767 26.3733 15.767 29.84C15.767 33.3067 15.7937 35.8133 15.847 37.36C16.1137 43.6 18.647 46.72 23.447 46.72ZM56.1345 58C55.6012 58 55.1212 57.8133 54.6945 57.44C54.3212 57.0133 54.1345 56.5333 54.1345 56V50C54.1345 48.4 54.8012 47.0667 56.1345 46L63.5745 38.72C68.6412 34.88 72.4545 31.8933 75.0145 29.76C77.6278 27.6267 79.6012 25.7067 80.9345 24C82.3212 22.24 83.0145 20.5867 83.0145 19.04C83.0145 15.0933 81.0412 13.12 77.0945 13.12C75.0145 13.12 73.4145 13.76 72.2945 15.04C71.1745 16.2667 70.4278 17.8133 70.0545 19.68C69.7345 20.9067 68.8278 21.52 67.3345 21.52H56.7745C56.2945 21.52 55.8678 21.36 55.4945 21.04C55.1745 20.6667 55.0145 20.2667 55.0145 19.84C55.1212 16.32 56.0812 13.1467 57.8945 10.32C59.7612 7.44 62.3478 5.17333 65.6545 3.52C68.9612 1.81333 72.7745 0.959995 77.0945 0.959995C81.5745 0.959995 85.4412 1.68 88.6945 3.12C91.9478 4.56 94.4012 6.58666 96.0545 9.2C97.7612 11.8133 98.6145 14.8533 98.6145 18.32C98.6145 22.16 97.4145 25.6267 95.0145 28.72C92.6678 31.8133 89.0678 35.1733 84.2145 38.8L77.5745 45.44H97.8145C98.4012 45.44 98.8812 45.6267 99.2545 46C99.6278 46.3733 99.8145 46.8533 99.8145 47.44V56C99.8145 56.5333 99.6278 57.0133 99.2545 57.44C98.8812 57.8133 98.4012 58 97.8145 58H56.1345Z" fill="#FBD5D5"/>
</svg>
